<?xml version="1.0" encoding="UTF-8" standalone="no"?>
<svg width="1536px" height="512px" viewBox="0 0 1536 512" version="1.1" xmlns="http://www.w3.org/2000/svg" xmlns:xlink="http://www.w3.org/1999/xlink">
    <!-- Generator: Sketch 3.8.1 (29687) - http://www.bohemiancoding.com/sketch -->
    <title>Slice 1</title>
    <desc>Created with Sketch.</desc>
    <defs>
        <rect id="path-1" x="0" y="0" width="511.18859" height="512" rx="100"></rect>
        <mask id="mask-2" maskContentUnits="userSpaceOnUse" maskUnits="objectBoundingBox" x="0" y="0" width="511.18859" height="512" fill="white">
            <use xlink:href="#path-1"></use>
        </mask>
        <linearGradient x1="50%" y1="0%" x2="50%" y2="100%" id="linearGradient-3">
            <stop stop-color="#007DC6" offset="0%"></stop>
            <stop stop-color="#5D7D9B" offset="100%"></stop>
        </linearGradient>
    </defs>
    <g id="Page-1" stroke="none" stroke-width="1" fill="none" fill-rule="evenodd">
        <g id="Group">
            <use id="Rectangle-2" stroke="#5D7D9B" mask="url(#mask-2)" stroke-width="20" fill="#FFFFFF" xlink:href="#path-1"></use>
            <path d="M234.497623,341.333333 C261.161813,341.333333 511.590308,341.333333 511.590308,341.333333 L511.590308,170.666667 L234.497623,170.666667 C187.444012,170.666667 149.299525,208.871701 149.299525,256 C149.299525,303.128299 187.444012,341.333333 234.497623,341.333333 Z" id="Oval-1" fill="#5D7D9B"></path>
        </g>
        <path d="M1088.00354,0 C1052.65536,0 1024,28.6705615 1024,64.0035364 L1024,447.996465 C1024,483.34464 1052.67056,512 1088.00354,512 L1471.99646,512 C1507.34464,512 1536,483.329439 1536,447.996465 L1536,64.0035364 C1536,28.6553592 1507.32944,0 1471.99646,0 L1088.00354,0 L1088.00354,0 Z M1343.99241,66.56 C1327.03042,66.56 1313.28,80.3189724 1313.28,97.2951263 L1313.28,259.824873 C1313.28,276.799416 1327.03546,290.56 1343.99241,290.56 L1438.72759,290.56 C1455.68958,290.56 1469.44,276.801027 1469.44,259.824873 L1469.44,97.2951263 C1469.44,80.3205847 1455.68454,66.56 1438.72759,66.56 L1343.99241,66.56 L1343.99241,66.56 Z M1121.27241,66.56 C1104.31042,66.56 1090.56,80.3047524 1090.56,97.2586084 L1090.56,387.861391 C1090.56,404.815764 1104.31546,418.56 1121.27241,418.56 L1216.00759,418.56 C1232.96958,418.56 1246.72,404.815247 1246.72,387.861391 L1246.72,97.2586084 C1246.72,80.304235 1232.96454,66.56 1216.00759,66.56 L1121.27241,66.56 L1121.27241,66.56 Z" id="Board" fill="#007DC6"></path>
        <polygon id="Triangle-1" fill="url(#linearGradient-3)" transform="translate(768.000000, 256.000000) rotate(90.000000) translate(-768.000000, -256.000000) " points="768 64 960 448 576 448"></polygon>
    </g>
</svg>